<svg width="24" height="24" viewBox="0 0 24 24" fill="none" xmlns="http://www.w3.org/2000/svg">
<path d="M5.94 4.5C6.97 4.5 7.99999 4.92 8.74 5.65L12 8.82L15.26 5.65C16 4.92 17.03 4.5 18.06 4.5C18.62 4.5 19.44 4.63 20.19 5.23C20.97 5.85 21.42 6.73 21.46 7.69C21.51 8.65 21.15 9.55 20.45 10.23L20.33 10.35C20.27 10.42 14.19 17.18 11.99 19.46C9.78999 17.18 3.72 10.42 3.65 10.35L3.61 10.29L3.55 10.23C2.85 9.55 2.49 8.64 2.54 7.69C2.59 6.73 3.04 5.86 3.81 5.23C4.56 4.63 5.38 4.5 5.94 4.5ZM18.06 2C16.4 2 14.73 2.65 13.48 3.87C13.11 4.23 12 5.31 12 5.31C12 5.31 10.89 4.23 10.52 3.87C9.27 2.65 7.6 2 5.94 2C4.61 2 3.29 2.42 2.21 3.29C-0.580005 5.54 -0.730005 9.57 1.77 12.01C1.77 12.01 8.06 19.02 10.25 21.27C10.72 21.76 11.36 22 12 22C12.64 22 13.28 21.76 13.75 21.27C15.94 19.02 22.23 12.01 22.23 12.01C24.73 9.58 24.58 5.54 21.79 3.29C20.71 2.42 19.39 2 18.06 2Z" fill="#111"/>
</svg>
